# xmcd CD database file
#
# Track frame offsets:
#	150
#	1420
#	23121
#	44306
#	57923
#	78787
#	97644
#	122034
#	151693
#	171865
#	193724
#	214172
#	245543
#	264087
#	282167
#	296237
#	311483
#
# Disc length: 4377 seconds
#
# Revision: 0
# Processed by: cddbd v1.5.1PL0 Copyright (c) Steve Scherf et al.
# Submitted via: CDex 1.51
#
DISCID=da111711
DTITLE=Blues Wunder - Live
DYEAR=1998
DGENRE=Blues
TTITLE0=Herzlichen Dank
TTITLE1=Attitude Dance
TTITLE2=You can leave your head on
TTITLE3=Crostown Traffic
TTITLE4=Soul Mine
TTITLE5=I wish
TTITLE6=Angeline
TTITLE7=Don't let me be miss understood
TTITLE8=Superstition
TTITLE9=Just to keep from drowing
TTITLE10=Soul with a capital S
TTITLE11=Peace of mind
TTITLE12=OO Soul
TTITLE13=Put out the ligth
TTITLE14=Practise what you preach
TTITLE15=Turn me loose, I'm Dr. Feeolgood
TTITLE16=Everybody needs someone to love
EXTD=YEAR: 1998
EXTT0=
EXTT1=
EXTT2=
EXTT3=
EXTT4=
EXTT5=
EXTT6=
EXTT7=
EXTT8=
EXTT9=
EXTT10=
EXTT11=
EXTT12=
EXTT13=
EXTT14=
EXTT15=
EXTT16=
PLAYORDER=
